<?xml version="1.0" standalone="no"?><!DOCTYPE svg PUBLIC "-//W3C//DTD SVG 1.1//EN" "http://www.w3.org/Graphics/SVG/1.1/DTD/svg11.dtd"><svg t="1639470163277" class="icon" viewBox="0 0 1024 1024" version="1.1" xmlns="http://www.w3.org/2000/svg" p-id="2221" xmlns:xlink="http://www.w3.org/1999/xlink" width="200" height="200"><defs><style type="text/css"></style></defs><path d="M770.133333 981.333333H275.2c-17.066667 0-32-14.933333-32-32v-874.666666c0-17.066667 12.8-32 32-32h497.066667c17.066667 0 32 14.933333 32 32v874.666666c-2.133333 17.066667-14.933333 32-34.133334 32zM275.2 64c-6.4 0-10.666667 4.266667-10.666667 10.666667v874.666666c0 6.4 4.266667 10.666667 10.666667 10.666667h497.066667c6.4 0 10.666667-4.266667 10.666666-10.666667v-874.666666c0-6.4-4.266667-10.666667-10.666666-10.666667H275.2z" fill="#8a8a8a" p-id="2222"></path><path d="M684.8 226.133333H360.533333c-6.4 0-10.666667-4.266667-10.666666-10.666666s4.266667-10.666667 10.666666-10.666667h324.266667c6.4 0 10.666667 4.266667 10.666667 10.666667s-4.266667 10.666667-10.666667 10.666666zM684.8 332.8H360.533333c-6.4 0-10.666667-4.266667-10.666666-10.666667s4.266667-10.666667 10.666666-10.666666h324.266667c6.4 0 10.666667 4.266667 10.666667 10.666666s-4.266667 10.666667-10.666667 10.666667zM522.666667 819.2c-36.266667 0-64-29.866667-64-64 0-36.266667 29.866667-64 64-64 36.266667 0 64 29.866667 64 64 0 36.266667-27.733333 64-64 64z m0-106.666667c-23.466667 0-42.666667 19.2-42.666667 42.666667s19.2 42.666667 42.666667 42.666667 42.666667-19.2 42.666666-42.666667-19.2-42.666667-42.666666-42.666667z" fill="#8a8a8a" p-id="2223"></path></svg>