<?xml version="1.0" standalone="no"?><!DOCTYPE svg PUBLIC "-//W3C//DTD SVG 1.1//EN" "http://www.w3.org/Graphics/SVG/1.1/DTD/svg11.dtd"><svg t="1628262374550" class="icon" viewBox="0 0 1024 1024" version="1.1" xmlns="http://www.w3.org/2000/svg" p-id="8643" xmlns:xlink="http://www.w3.org/1999/xlink" width="200" height="200"><defs><style type="text/css"></style></defs><path d="M514.56 510.83776a29.11744 29.11744 0 0 1-12.43136-2.78528L103.7056 319.96928a29.07648 29.07648 0 0 1 0.57344-52.85888l398.42304-177.58208a29.15328 29.15328 0 0 1 23.72096 0l398.41792 177.58208a29.07648 29.07648 0 0 1 0.57344 52.864l-398.41792 188.07296a29.13792 29.13792 0 0 1-12.43648 2.7904zM185.89184 294.43072l328.66816 155.136 328.66816-155.136L514.56 147.9424zM522.68032 936.96a29.12768 29.12768 0 0 1-12.43648-2.78528l-398.41792-188.0832 24.87808-52.59264 385.98144 182.21056 385.98656-182.21056 24.86784 52.59264-398.41792 188.0832a29.12256 29.12256 0 0 1-12.4416 2.78528z" fill="#dbdbdb" p-id="8644"></path><path d="M514.56 728.7552l-410.88-194.51392 24.86784-52.736 386.01216 182.72768 386.01216-182.74816 24.86784 52.736z" fill="#dbdbdb" p-id="8645"></path></svg>