<?xml version="1.0" standalone="no"?><!DOCTYPE svg PUBLIC "-//W3C//DTD SVG 1.1//EN" "http://www.w3.org/Graphics/SVG/1.1/DTD/svg11.dtd"><svg t="1628263027089" class="icon" viewBox="0 0 1024 1024" version="1.1" xmlns="http://www.w3.org/2000/svg" p-id="13590" xmlns:xlink="http://www.w3.org/1999/xlink" width="200" height="200"><defs><style type="text/css"></style></defs><path d="M376.32 616.96v19.2h51.2v26.88h-51.2v17.92h51.2v47.36h35.84v-47.36h51.2v-17.92h-51.2v-26.88h51.2v-19.2H473.6l60.16-107.52h-40.96l-47.36 93.44-48.64-93.44h-39.68l58.88 107.52zM323.84 816.64h234.24c8.96 0 15.36-6.4 15.36-15.36s-6.4-15.36-15.36-15.36H323.84c-8.96 0-15.36 6.4-15.36 15.36 0 7.68 7.68 15.36 15.36 15.36z" fill="#cdcdcd" p-id="13591"></path><path d="M884.48 430.08L519.68 113.92c-5.12-5.12-14.08-5.12-20.48 0L139.52 426.24c-3.84 2.56-5.12 7.68-5.12 11.52v460.8c0 8.96 6.4 15.36 15.36 15.36h725.76c8.96 0 15.36-6.4 15.36-15.36V441.6c-1.28-3.84-2.56-8.96-6.4-11.52zM615.68 883.2h-345.6V441.6h345.6V883.2z m69.12 0h-38.4V501.76h38.4V883.2z m174.08 0H715.52V486.4c0-8.96-6.4-15.36-15.36-15.36h-52.48v-43.52c0-8.96-6.4-15.36-15.36-15.36H254.72c-8.96 0-15.36 6.4-15.36 15.36V883.2h-75.52V444.16l344.32-298.24L857.6 449.28V883.2z" fill="#cdcdcd" p-id="13592"></path></svg>