<?xml version="1.0" standalone="no"?><!DOCTYPE svg PUBLIC "-//W3C//DTD SVG 1.1//EN" "http://www.w3.org/Graphics/SVG/1.1/DTD/svg11.dtd"><svg t="1651172694005" class="icon" viewBox="0 0 1024 1024" version="1.1" xmlns="http://www.w3.org/2000/svg" p-id="5199" xmlns:xlink="http://www.w3.org/1999/xlink" width="200" height="200"><defs><style type="text/css">@font-face { font-family: feedback-iconfont; src: url("//at.alicdn.com/t/font_1031158_u69w8yhxdu.woff2?t=1630033759944") format("woff2"), url("//at.alicdn.com/t/font_1031158_u69w8yhxdu.woff?t=1630033759944") format("woff"), url("//at.alicdn.com/t/font_1031158_u69w8yhxdu.ttf?t=1630033759944") format("truetype"); }
</style></defs><path d="M502.9 501.67z" p-id="5200" fill="#cdcdcd"></path><path d="M240.14 316.3a164.63 178.53 0 1 0 329.26 0 164.63 178.53 0 1 0-329.26 0Z" p-id="5201" fill="#cdcdcd"></path><path d="M502.9 501.67c-28.32 21.94-62 34.65-98.13 34.65S335 523.6 306.65 501.67C183.37 551.28 94.49 691.77 94.49 857.36q0 14.57 0.9 28.87h618.77q0.9-14.42 0.9-28.87c0-165.59-88.88-306.09-212.16-355.69zM591.64 346.58a160.39 160.39 0 0 1-5.64 43.19 157.47 157.47 0 0 1-47 75.36c22.38 49.4 70.66 83.62 126.64 83.62 77.31 0 140-65.17 140-145.56S743 257.62 665.69 257.62a135.79 135.79 0 0 0-83.08 28.44 78.94 78.94 0 0 1 9.06 26.81c1.7 11.21 2.19 22.94-0.03 33.71z" p-id="5202" fill="#cdcdcd"></path><path d="M749.12 559.11c-24.07 18.65-52.71 29.46-83.43 29.46a128.93 128.93 0 0 1-23.39-2.17c28.18 23.15 46.62 63.51 60.44 100.54 7.06 17.47 13.13 35.56 18.75 53.36 12.75 40.41 21.3 85.47 16.61 128.45 0.45 5.77 0.75 11.55 0.86 17.32h189.79q0.77-12.15 0.77-24.54c-0.01-140.78-75.58-260.25-180.4-302.42z" p-id="5203" fill="#cdcdcd"></path></svg>