<?xml version="1.0" standalone="no"?><!DOCTYPE svg PUBLIC "-//W3C//DTD SVG 1.1//EN" "http://www.w3.org/Graphics/SVG/1.1/DTD/svg11.dtd"><svg t="1651172597780" class="icon" viewBox="0 0 1024 1024" version="1.1" xmlns="http://www.w3.org/2000/svg" p-id="2804" xmlns:xlink="http://www.w3.org/1999/xlink" width="200" height="200"><defs><style type="text/css">@font-face { font-family: feedback-iconfont; src: url("//at.alicdn.com/t/font_1031158_u69w8yhxdu.woff2?t=1630033759944") format("woff2"), url("//at.alicdn.com/t/font_1031158_u69w8yhxdu.woff?t=1630033759944") format("woff"), url("//at.alicdn.com/t/font_1031158_u69w8yhxdu.ttf?t=1630033759944") format("truetype"); }
</style></defs><path d="M815.786667 162.56H208.213333A101.973333 101.973333 0 0 0 106.666667 264.106667v351.146666a101.973333 101.973333 0 0 0 101.546666 101.546667h119.893334a21.333333 21.333333 0 0 1 13.653333 5.12l32 27.306667a21.333333 21.333333 0 0 0 27.733333-32.426667l-32-27.306667a64 64 0 0 0-42.666666-15.36H208.213333a59.306667 59.306667 0 0 1-58.88-58.453333V264.106667a59.306667 59.306667 0 0 1 58.88-58.88h607.573334a59.306667 59.306667 0 0 1 58.88 58.88v351.146666a59.306667 59.306667 0 0 1-58.88 58.88h-119.893334a64 64 0 0 0-42.666666 15.36l-128 109.226667a21.333333 21.333333 0 0 1-27.733334 0 21.333333 21.333333 0 1 0-27.733333 32.426667 63.573333 63.573333 0 0 0 82.773333 0l128-109.226667a21.333333 21.333333 0 0 1 13.653334-5.12h119.893333a101.973333 101.973333 0 0 0 101.546667-101.546667V264.106667a101.973333 101.973333 0 0 0-99.84-101.546667z" p-id="2805" fill="#cdcdcd"></path><path d="M512 333.653333a21.333333 21.333333 0 0 0-21.333333 21.333334v85.333333a21.333333 21.333333 0 0 0 21.333333 21.333333h85.333333a21.333333 21.333333 0 0 0 0-42.666666h-64v-64a21.333333 21.333333 0 0 0-21.333333-21.333334z" p-id="2806" fill="#cdcdcd"></path><path d="M560.213333 256A188.586667 188.586667 0 0 0 512 248.32a192 192 0 1 0 192 192 189.866667 189.866667 0 0 0-6.4-48.213333 21.333333 21.333333 0 1 0-42.666667 10.666666 146.346667 146.346667 0 0 1 5.12 37.546667A149.333333 149.333333 0 1 1 512 290.986667a147.2 147.2 0 0 1 37.546667 5.546666 21.333333 21.333333 0 1 0 10.666666-42.666666z" p-id="2807" fill="#cdcdcd"></path></svg>