<?xml version="1.0" standalone="no"?><!DOCTYPE svg PUBLIC "-//W3C//DTD SVG 1.1//EN" "http://www.w3.org/Graphics/SVG/1.1/DTD/svg11.dtd"><svg t="1651172637568" class="icon" viewBox="0 0 1024 1024" version="1.1" xmlns="http://www.w3.org/2000/svg" p-id="3533" xmlns:xlink="http://www.w3.org/1999/xlink" width="200" height="200"><defs><style type="text/css">@font-face { font-family: feedback-iconfont; src: url("//at.alicdn.com/t/font_1031158_u69w8yhxdu.woff2?t=1630033759944") format("woff2"), url("//at.alicdn.com/t/font_1031158_u69w8yhxdu.woff?t=1630033759944") format("woff"), url("//at.alicdn.com/t/font_1031158_u69w8yhxdu.ttf?t=1630033759944") format("truetype"); }
</style></defs><path d="M868.22016435 961.9623125h-92.05478964a93.59216104 93.59216104 0 0 1-93.70465224-93.25468916V155.29237666A93.59216104 93.59216104 0 0 1 776.16537471 62.0376875H868.22016435a93.59216104 93.59216104 0 0 1 93.6671546 93.25468916v713.41524668A93.59216104 93.59216104 0 0 1 868.22016435 961.9623125z m36.40944991-806.66993584a36.37195401 36.37195401 0 0 0-36.40944991-36.25946279h-92.05478964a36.37195401 36.37195401 0 0 0-36.44694756 36.25946279v713.41524668a36.37195401 36.37195401 0 0 0 36.44694756 36.2594628H868.22016435a36.37195401 36.37195401 0 0 0 36.40944991-36.2594628V155.29237666zM551.97165166 961.9623125h-92.05478965a93.59216104 93.59216104 0 0 1-93.66715459-93.25468916V354.58818417a93.59216104 93.59216104 0 0 1 93.66715459-93.29218592h92.05478965a93.55466425 93.55466425 0 0 1 93.66715547 93.29218593v514.11943916A93.55466425 93.55466425 0 0 1 551.97165166 961.9623125z m36.44694756-607.37412833a36.37195401 36.37195401 0 0 0-36.44694756-36.29695956h-92.05478965a36.37195401 36.37195401 0 0 0-36.4094499 36.29695956v514.11943917a36.37195401 36.37195401 0 0 0 36.4094499 36.25946279h92.05478965a36.37195401 36.37195401 0 0 0 36.44694756-36.25946279V354.58818417zM247.75963174 961.9623125H155.70484209A93.55466425 93.55466425 0 0 1 62.0376875 868.70762334v-310.88646123a93.55466425 93.55466425 0 0 1 93.66715459-93.25468916h92.05478965a93.55466425 93.55466425 0 0 1 93.66715459 93.25468916v310.88646123A93.55466425 93.55466425 0 0 1 247.75963174 961.9623125z m36.40945078-404.14115039a36.37195401 36.37195401 0 0 0-36.40945078-36.25946279H155.70484209a36.37195401 36.37195401 0 0 0-36.44694756 36.25946279v310.88646123a36.37195401 36.37195401 0 0 0 36.44694756 36.2594628h92.05478965a36.37195401 36.37195401 0 0 0 36.40945078-36.2594628v-310.88646123z" p-id="3534" fill="#cdcdcd"></path></svg>