<?xml version="1.0" standalone="no"?><!DOCTYPE svg PUBLIC "-//W3C//DTD SVG 1.1//EN" "http://www.w3.org/Graphics/SVG/1.1/DTD/svg11.dtd"><svg t="1651172653806" class="icon" viewBox="0 0 1024 1024" version="1.1" xmlns="http://www.w3.org/2000/svg" p-id="3740" xmlns:xlink="http://www.w3.org/1999/xlink" width="200" height="200"><defs><style type="text/css">@font-face { font-family: feedback-iconfont; src: url("//at.alicdn.com/t/font_1031158_u69w8yhxdu.woff2?t=1630033759944") format("woff2"), url("//at.alicdn.com/t/font_1031158_u69w8yhxdu.woff?t=1630033759944") format("woff"), url("//at.alicdn.com/t/font_1031158_u69w8yhxdu.ttf?t=1630033759944") format("truetype"); }
</style></defs><path d="M240.64 564.906667a185.173333 185.173333 0 0 0-27.306667 2.56 298.666667 298.666667 0 0 0 7.68 65.28 89.173333 89.173333 0 0 1 108.8 85.333333 88.746667 88.746667 0 0 1-23.893333 60.16 282.88 282.88 0 0 0 52.48 39.68 154.453333 154.453333 0 0 0-118.613333-256zM243.626667 810.666667h-2.986667a90.026667 90.026667 0 0 1-89.6-90.026667 88.746667 88.746667 0 0 1 13.653333-46.933333 369.493333 369.493333 0 0 1-14.506666-78.506667 154.88 154.88 0 0 0 153.173333 267.52A368.213333 368.213333 0 0 1 243.626667 810.666667zM655.36 311.893333a294.826667 294.826667 0 0 1 147.626667 256 151.893333 151.893333 0 0 1 64.426666 23.04v-23.04a360.96 360.96 0 0 0-200.533333-322.56v4.693334a154.453333 154.453333 0 0 1-11.52 61.866666zM213.333333 567.04a294.4 294.4 0 0 1 156.16-259.413333 158.72 158.72 0 0 1-11.52-58.453334v-9.386666a360.96 360.96 0 0 0-210.346666 327.253333v27.733333A156.16 156.16 0 0 1 213.333333 567.466667z" fill="#cdcdcd" p-id="3741"></path><path d="M662.613333 817.066667a292.266667 292.266667 0 0 1-303.36 2.986666 160.426667 160.426667 0 0 1-55.893333 42.666667 358.826667 358.826667 0 0 0 413.44-2.133333 152.746667 152.746667 0 0 1-54.186667-43.52z" fill="#cdcdcd" p-id="3742"></path><path d="M359.253333 820.053333a282.88 282.88 0 0 1-52.48-39.68 88.32 88.32 0 0 1-63.146666 30.293334 368.213333 368.213333 0 0 0 59.733333 52.48 160.426667 160.426667 0 0 0 55.893333-43.093334zM221.866667 632.746667A298.666667 298.666667 0 0 1 213.333333 567.466667a156.16 156.16 0 0 0-64 27.306666 369.493333 369.493333 0 0 0 14.506667 78.506667 90.026667 90.026667 0 0 1 58.026667-40.533333zM512 159.146667a89.173333 89.173333 0 0 1 85.333333 59.306666 359.68 359.68 0 0 1 70.826667 26.026667 154.88 154.88 0 0 0-309.333333-4.693333 368.213333 368.213333 0 0 1 71.253333-23.893334A89.6 89.6 0 0 1 512 159.146667zM512 404.48a156.586667 156.586667 0 0 0 142.08-92.586667A314.453333 314.453333 0 0 0 597.333333 285.44a89.6 89.6 0 0 1-164.693333-2.133333 303.36 303.36 0 0 0-61.013333 24.32A155.733333 155.733333 0 0 0 512 404.48z" fill="#cdcdcd" p-id="3743"></path><path d="M369.493333 307.626667a303.36 303.36 0 0 1 61.013334-24.32 91.733333 91.733333 0 0 1-6.826667-34.133334 85.333333 85.333333 0 0 1 6.4-33.28 368.213333 368.213333 0 0 0-71.253333 23.893334v9.386666a158.72 158.72 0 0 0 10.666666 58.453334zM603.306667 249.173333a85.333333 85.333333 0 0 1-8.106667 36.266667 314.453333 314.453333 0 0 1 60.16 26.453333 154.453333 154.453333 0 0 0 13.226667-62.72v-4.693333A359.68 359.68 0 0 0 597.333333 218.453333a89.6 89.6 0 0 1 5.973334 30.72zM783.36 630.613333a121.6 121.6 0 0 1 12.373333 0 296.106667 296.106667 0 0 0 7.253334-64.853333 145.493333 145.493333 0 0 0-19.626667 0 155.306667 155.306667 0 0 0-155.306667 155.306667 153.173333 153.173333 0 0 0 34.56 96.853333 279.04 279.04 0 0 0 51.626667-40.106667 88.32 88.32 0 0 1-20.906667-56.746666 90.026667 90.026667 0 0 1 90.026667-90.453334zM867.413333 590.08a366.933333 366.933333 0 0 1-12.8 75.946667 92.16 92.16 0 0 1 18.346667 54.186666 90.026667 90.026667 0 0 1-89.6 90.453334h-9.386667a360.533333 360.533333 0 0 1-57.173333 50.773333 151.466667 151.466667 0 0 0 66.56 15.786667 155.306667 155.306667 0 0 0 85.333333-285.866667z" fill="#cdcdcd" p-id="3744"></path><path d="M795.733333 631.893333a90.026667 90.026667 0 0 1 58.88 34.133334 366.933333 366.933333 0 0 0 12.8-75.946667 151.893333 151.893333 0 0 0-64.426666-23.04 296.106667 296.106667 0 0 1-7.253334 64.853333zM773.973333 810.666667a89.173333 89.173333 0 0 1-59.733333-32.426667 279.04 279.04 0 0 1-51.626667 40.106667 152.746667 152.746667 0 0 0 54.186667 42.666666A360.533333 360.533333 0 0 0 773.973333 810.666667z" fill="#cdcdcd" p-id="3745"></path></svg>