<?xml version="1.0" standalone="no"?><!DOCTYPE svg PUBLIC "-//W3C//DTD SVG 1.1//EN" "http://www.w3.org/Graphics/SVG/1.1/DTD/svg11.dtd"><svg t="1628262699240" class="icon" viewBox="0 0 1024 1024" version="1.1" xmlns="http://www.w3.org/2000/svg" p-id="9036" xmlns:xlink="http://www.w3.org/1999/xlink" width="200" height="200"><defs><style type="text/css"></style></defs><path d="M241.89 213.3H128.13c-23.56 0-42.66 19.1-42.66 42.66 0 23.56 19.1 42.66 42.66 42.66h113.76c23.56 0 42.66-19.1 42.66-42.66 0-23.56-19.1-42.66-42.66-42.66zM241.89 469.27H128.13c-23.56 0-42.66 19.1-42.66 42.66 0 23.56 19.1 42.66 42.66 42.66h113.76c23.56 0 42.66-19.1 42.66-42.66 0-23.56-19.1-42.66-42.66-42.66zM241.89 725.23H128.13c-23.56 0-42.66 19.1-42.66 42.66 0 23.56 19.1 42.66 42.66 42.66h113.76c23.56 0 42.66-19.1 42.66-42.66 0-23.56-19.1-42.66-42.66-42.66zM896.02 213.3H412.53c-23.56 0-42.66 19.1-42.66 42.66 0 23.56 19.1 42.66 42.66 42.66h483.49c23.56 0 42.66-19.1 42.66-42.66 0-23.56-19.1-42.66-42.66-42.66zM896.02 469.27H412.53c-23.56 0-42.66 19.1-42.66 42.66 0 23.56 19.1 42.66 42.66 42.66h483.49c23.56 0 42.66-19.1 42.66-42.66 0-23.56-19.1-42.66-42.66-42.66zM896.02 725.23H412.53c-23.56 0-42.66 19.1-42.66 42.66 0 23.56 19.1 42.66 42.66 42.66h483.49c23.56 0 42.66-19.1 42.66-42.66 0-23.56-19.1-42.66-42.66-42.66z" fill="#cdcdcd" p-id="9037"></path></svg>