<?xml version="1.0" standalone="no"?><!DOCTYPE svg PUBLIC "-//W3C//DTD SVG 1.1//EN" "http://www.w3.org/Graphics/SVG/1.1/DTD/svg11.dtd"><svg t="1628262627082" class="icon" viewBox="0 0 1024 1024" version="1.1" xmlns="http://www.w3.org/2000/svg" p-id="6104" xmlns:xlink="http://www.w3.org/1999/xlink" width="200" height="200"><defs><style type="text/css"></style></defs><path d="M519.2448 962.56h-1.6128c-64.95744 0-155.9296-49.152-243.072-131.46112C208.65536 768.86016 138.24 679.6032 138.24 615.7568V255.62624A61.40416 61.40416 0 0 1 176.54272 198.656L500.224 65.9712a62.30528 62.30528 0 0 1 47.76448 0.33792L858.496 198.656A61.49632 61.49632 0 0 1 896 255.2832v360.448c0 59.83744-66.048 151.8336-131.51744 216.46336C680.48384 915.1488 591.22176 962.56 519.2448 962.56z m4.44928-846.68928a7.168 7.168 0 0 0-2.70848 0.512L197.3248 249.07264a7.06048 7.06048 0 0 0-4.4032 6.5536v360.13056c0 31.37536 40.96 101.82656 119.20896 175.75936 74.9312 70.77888 155.69408 116.52096 205.75232 116.52096h1.13664c57.08288 0 134.24128-42.73152 206.99136-114.56 72.192-71.26016 115.31264-146.32448 115.31264-177.72544V255.2832a7.06048 7.06048 0 0 0-4.30592-6.50752l-310.52288-132.33664a7.168 7.168 0 0 0-2.80064-0.56832z" fill="#cdcdcd" p-id="6105"></path><path d="M588.66176 576.512h-44.08832v-36.41856a118.17472 118.17472 0 1 0-54.91712 0v152.76544a27.45856 27.45856 0 0 0 54.91712 0v-61.696h44.08832a27.33568 27.33568 0 1 0 0-54.65088zM453.8624 425.79456A63.25248 63.25248 0 1 1 517.12 488.75008a63.17568 63.17568 0 0 1-63.2576-62.95552z" fill="#cdcdcd" p-id="6106"></path></svg>