<?xml version="1.0" standalone="no"?><!DOCTYPE svg PUBLIC "-//W3C//DTD SVG 1.1//EN" "http://www.w3.org/Graphics/SVG/1.1/DTD/svg11.dtd"><svg t="1650648620223" class="icon" viewBox="0 0 1043 1024" version="1.1" xmlns="http://www.w3.org/2000/svg" p-id="2011" xmlns:xlink="http://www.w3.org/1999/xlink" width="203.7109375" height="200"><defs><style type="text/css">@font-face { font-family: feedback-iconfont; src: url("//at.alicdn.com/t/font_1031158_u69w8yhxdu.woff2?t=1630033759944") format("woff2"), url("//at.alicdn.com/t/font_1031158_u69w8yhxdu.woff?t=1630033759944") format("woff"), url("//at.alicdn.com/t/font_1031158_u69w8yhxdu.ttf?t=1630033759944") format("truetype"); }
</style></defs><path d="M1014.6816 446.464l-393.0624-387.2768a143.3088 143.3088 0 0 0-200.2432 0L28.4672 446.4128a92.3136 92.3136 0 0 0-27.5968 65.6896v350.1568c0 79.0528 64.3072 143.36 143.36 143.36H688.128a40.96 40.96 0 0 0 0-81.92H144.2304c-33.8944 0-61.44-27.5456-61.44-61.44v-350.1568c0-2.7136 1.0752-5.3248 3.1232-7.2704l393.0624-387.2768a60.928 60.928 0 0 1 85.248 0l393.1648 387.328a10.24 10.24 0 0 1 3.0208 7.2192v350.1568c0 33.8944-27.5456 61.44-61.44 61.44a40.96 40.96 0 0 0 0 81.92c79.0528 0 143.36-64.3072 143.36-143.36v-350.1568a93.0304 93.0304 0 0 0-27.648-65.6384z" fill="#cdcdcd" p-id="2012"></path><path d="M792.32 491.6224H402.3808a38.4 38.4 0 0 0 0 76.8h389.888a38.4 38.4 0 0 0 0.0512-76.8zM250.7776 491.6224a38.4 38.4 0 0 0 0 76.8h3.9424c21.1968 0 36.4544-17.2032 36.4544-38.4s-19.2-38.4-40.3968-38.4zM792.32 696.4224H402.3808a38.4 38.4 0 0 0 0 76.8h389.888a38.4 38.4 0 0 0 0.0512-76.8zM250.7776 696.4224a38.4 38.4 0 0 0 0 76.8h3.9424c21.1968 0 36.4544-17.2032 36.4544-38.4s-19.2-38.4-40.3968-38.4z" fill="#cdcdcd" p-id="2013"></path></svg>