<?xml version="1.0" standalone="no"?><!DOCTYPE svg PUBLIC "-//W3C//DTD SVG 1.1//EN" "http://www.w3.org/Graphics/SVG/1.1/DTD/svg11.dtd"><svg t="1628262667440" class="icon" viewBox="0 0 1024 1024" version="1.1" xmlns="http://www.w3.org/2000/svg" p-id="8121" xmlns:xlink="http://www.w3.org/1999/xlink" width="200" height="200"><defs><style type="text/css"></style></defs><path d="M1024 512c0 282.763636-229.236364 512-512 512S0 794.763636 0 512 229.236364 0 512 0s512 229.236364 512 512z m-281.6-230.4c0-28.16-23.04-51.2-51.2-51.2h-358.4c-28.16 0-51.2 23.04-51.2 51.2v460.8c0 28.16 23.04 51.2 51.2 51.2h358.4c28.16 0 51.2-23.04 51.2-51.2v-460.8z m-63.394909 104.913455a19.176727 19.176727 0 1 0 0-38.4H417.326545a19.176727 19.176727 0 1 0 0 38.4h261.678546z m0 131.490909a19.223273 19.223273 0 0 0 0-38.4H417.326545a19.176727 19.176727 0 1 0 0 38.4h261.678546z m-109.661091 131.444363a19.176727 19.176727 0 1 0 0-38.4H417.326545a19.176727 19.176727 0 1 0 0 38.4h152.017455z m-213.504-262.981818a19.176727 19.176727 0 1 0 0-38.353454h-10.24a19.176727 19.176727 0 1 0 0 38.4h10.24z m0 131.537455a19.176727 19.176727 0 1 0 0-38.4h-10.24a19.176727 19.176727 0 1 0 0 38.4h10.24z m0.605091 131.444363a19.176727 19.176727 0 1 0 0-38.4h-11.450182a19.176727 19.176727 0 1 0 0 38.4h11.450182z" p-id="8122" fill="#dbdbdb"></path></svg>