<?xml version="1.0" standalone="no"?><!DOCTYPE svg PUBLIC "-//W3C//DTD SVG 1.1//EN" "http://www.w3.org/Graphics/SVG/1.1/DTD/svg11.dtd"><svg t="1628263111788" class="icon" viewBox="0 0 1024 1024" version="1.1" xmlns="http://www.w3.org/2000/svg" p-id="13809" xmlns:xlink="http://www.w3.org/1999/xlink" width="200" height="200"><defs><style type="text/css"></style></defs><path d="M730.914 958.062c-21.242 0-38.517-17.275-38.517-38.517 0-21.236 17.275-38.511 38.517-38.511h116.513c-8.07-70.396-38.605-137.435-86.824-190.072l-8.314-9.068 54.582-54.563 9.073 9.783c32.946 35.53 59.188 76.1 78.008 120.598 21.694 51.294 32.688 105.745 32.688 161.833 0 21.242-17.276 38.517-38.518 38.517H730.914z m-597.247 0c-21.235 0-38.514-17.275-38.514-38.517 0-56.107 10.998-110.552 32.688-161.833 20.94-49.505 50.911-93.966 89.08-132.132 38.158-38.16 82.614-68.13 132.133-89.078a416.991 416.991 0 0 1 10.73-4.361 261.727 261.727 0 0 1-31.712-27.028c-48.831-48.828-75.724-113.755-75.724-182.815 0-69.056 26.893-133.983 75.727-182.814S441.833 63.76 510.893 63.76c69.063 0 133.986 26.893 182.82 75.724 48.835 48.83 75.724 113.755 75.724 182.814 0 69.063-26.89 133.99-75.723 182.815a261.536 261.536 0 0 1-31.71 27.028 411.085 411.085 0 0 1 10.73 4.361c1.984 0.835 3.954 1.707 5.919 2.579l17.125 7.587-12.814 13.44-45.245 45.251-7.756-2.918c-38.047-14.333-78.102-21.6-119.067-21.6-172.04 0-317.257 130.77-336.54 300.19H290.85c21.236 0 38.511 17.276 38.511 38.512 0 21.242-17.275 38.517-38.51 38.517H133.666z m377.229-817.277c-100.09 0-181.52 81.425-181.52 181.512s81.428 181.517 181.52 181.517c100.084 0 181.512-81.428 181.512-181.517S610.98 140.785 510.896 140.785z m-0.76 725.539c-10.29 0-19.961-4.01-27.234-11.283L357.4 729.54c-7.276-7.272-11.28-16.942-11.28-27.234 0-10.285 4.003-19.955 11.28-27.228 7.273-7.272 16.943-11.283 27.231-11.283s19.959 4.01 27.231 11.283l98.275 98.265 235.78-235.775c7.28-7.28 16.95-11.283 27.235-11.283s19.955 4.004 27.234 11.277c15.011 15.03 15.011 39.459 0 54.47L537.372 855.04c-7.274 7.279-16.95 11.283-27.235 11.283z" p-id="13810" fill="#cdcdcd"></path></svg>