<?xml version="1.0" standalone="no"?><!DOCTYPE svg PUBLIC "-//W3C//DTD SVG 1.1//EN" "http://www.w3.org/Graphics/SVG/1.1/DTD/svg11.dtd"><svg t="1640075419620" class="icon" viewBox="0 0 1024 1024" version="1.1" xmlns="http://www.w3.org/2000/svg" p-id="16975" xmlns:xlink="http://www.w3.org/1999/xlink" width="200" height="200"><defs><style type="text/css"></style></defs><path d="M632.5 462.5c44.1 0 85.5 17.2 116.7 48.3 31.2 31.2 48.3 72.6 48.3 116.7s-17.2 85.5-48.3 116.7c-31.2 31.2-72.6 48.3-116.7 48.3s-85.5-17.2-116.7-48.3c-31.2-31.2-48.3-72.6-48.3-116.7s17.2-85.5 48.3-116.7 72.6-48.3 116.7-48.3m0-60c-124.3 0-225 100.7-225 225s100.7 225 225 225 225-100.7 225-225-100.7-225-225-225z" fill="#dbdbdb" p-id="16976"></path><path d="M880.3 910.8c-7.7 0-15.4-2.9-21.2-8.8L748 791c-11.7-11.7-11.7-30.7 0-42.4s30.7-11.7 42.4 0l111 111c11.7 11.7 11.7 30.7 0 42.4-5.8 5.8-13.5 8.8-21.1 8.8z" fill="#dbdbdb" p-id="16977"></path><path d="M113.5 172v620c0 33.1 26.9 60 60 60h210c16.6 0 30-13.4 30-30s-13.4-30-30-30h-180c-16.6 0-30-13.4-30-30V202c0-16.6 13.4-30 30-30h500c16.6 0 30 13.4 30 30v150h60V172c0-33.1-26.9-60-60-60h-560c-33.1 0-60 26.9-60 60z" fill="#dbdbdb" p-id="16978"></path><path d="M764 350m-30 0a30 30 0 1 0 60 0 30 30 0 1 0-60 0Z" fill="#dbdbdb" p-id="16979"></path></svg>